<?xml version="1.0" standalone="no"?>
<!DOCTYPE svg PUBLIC "-//W3C//DTD SVG 20010904//EN"
 "http://www.w3.org/TR/2001/REC-SVG-20010904/DTD/svg10.dtd">
<svg version="1.0" xmlns="http://www.w3.org/2000/svg"
 width="576.000000pt" height="240.000000pt" viewBox="0 0 576.000000 240.000000"
 preserveAspectRatio="xMidYMid meet">

<g transform="translate(0.000000,240.000000) scale(0.100000,-0.100000)"
fill="#000000" stroke="none">
<path d="M0 1200 l0 -1200 2880 0 2880 0 0 1200 0 1200 -2880 0 -2880 0 0
-1200z m4584 872 c9 -50 16 -118 16 -150 0 -54 2 -60 40 -97 22 -21 40 -42 40
-46 0 -10 -27 -5 -37 6 -4 4 -2 5 5 1 19 -11 14 5 -10 31 -29 31 -44 29 -23
-3 9 -15 12 -23 6 -20 -6 4 -11 0 -11 -8 0 -18 42 -31 66 -22 10 4 22 -1 31
-11 8 -10 11 -11 7 -3 -6 12 -5 13 7 4 22 -17 49 -24 49 -14 0 6 -8 10 -17 11
-12 0 -13 2 -5 6 7 3 21 -2 30 -10 9 -8 36 -18 60 -22 23 -4 42 -10 42 -14 0
-4 -14 -20 -32 -37 -17 -16 -28 -23 -24 -16 4 6 3 12 -1 12 -5 0 -15 -6 -23
-12 -8 -7 -12 -9 -8 -4 4 4 1 15 -7 23 -18 17 -19 33 -4 33 5 0 7 -4 4 -10 -3
-5 -2 -10 4 -10 5 0 16 -2 24 -5 8 -4 14 0 14 10 0 9 -6 14 -13 11 -8 -3 -16
-1 -19 4 -4 6 -18 10 -32 10 -23 0 -24 -2 -12 -17 12 -16 12 -17 -2 -6 -12 10
-18 10 -29 0 -12 -10 -12 -9 -2 5 15 19 9 24 -40 33 -57 11 -73 1 -75 -44 l-3
-40 43 -4 c23 -2 -56 -4 -175 -5 -120 -1 -218 1 -218 5 0 12 51 73 61 73 5 0
14 -11 19 -25 11 -29 45 -33 76 -10 10 8 15 15 10 15 -5 0 -2 8 5 17 12 14 12
16 0 8 -9 -5 -7 2 5 17 11 15 25 23 36 20 17 -4 21 10 18 66 -1 4 -10 6 -20 4
-11 -2 -20 2 -20 8 0 7 -14 25 -31 41 -17 16 -28 33 -24 39 4 6 -4 10 -18 10
-15 0 -28 -9 -36 -22 -11 -23 -11 -23 -5 2 10 36 22 41 84 35 l55 -6 37 88
c21 48 42 101 48 117 6 16 12 27 14 25 2 -2 11 -46 20 -97z m-960 -114 c30
-64 40 -78 43 -60 5 23 43 52 43 32 0 -6 4 -9 10 -5 5 3 3 -14 -4 -39 -8 -25
-11 -48 -7 -52 3 -4 -2 -4 -11 -1 -22 8 -22 0 -3 -47 41 -97 54 -136 47 -136
-5 0 -26 44 -47 98 -21 53 -42 101 -46 107 -5 5 -9 15 -9 23 0 7 -15 47 -34
88 -19 41 -31 74 -28 74 4 0 25 -37 46 -82z m-184 -13 c-8 -10 -7 -14 2 -18 7
-3 9 -6 3 -6 -5 0 -16 3 -24 8 -12 8 -12 11 0 24 17 18 35 11 19 -8z m-305 -5
c4 -6 11 -7 17 -4 7 5 8 2 3 -6 -6 -10 -2 -12 15 -7 30 8 50 -8 50 -39 0 -13
9 -28 20 -34 13 -7 20 -21 20 -41 0 -17 -4 -28 -9 -24 -12 7 -30 -25 -24 -43
7 -18 -17 -43 -36 -37 -9 2 -22 1 -30 -4 -11 -7 -10 -12 8 -22 11 -8 21 -18
21 -23 0 -5 -8 -2 -18 7 -11 10 -26 14 -40 10 -15 -4 -27 0 -35 11 -9 12 -22
16 -48 12 -33 -4 -35 -2 -37 27 -2 17 -12 41 -22 52 -25 27 -25 36 1 58 13 12
18 24 14 38 -9 26 13 51 36 44 11 -4 25 2 36 14 19 22 48 28 58 11z m967 -140
c-3 -75 -5 -80 -25 -79 -19 1 -19 2 -3 6 15 4 11 9 -20 28 -21 13 -43 21 -49
18 -5 -4 -7 -3 -3 2 4 4 0 13 -9 20 -9 7 -13 17 -9 24 8 12 94 60 111 61 6 0
9 -31 7 -80z m78 -35 c11 -3 30 -1 42 6 21 11 22 11 9 -4 -28 -35 -93 -5 -90
43 0 8 5 3 10 -12 6 -15 19 -30 29 -33z m780 41 c0 -3 -6 -11 -13 -18 -7 -7
-23 -26 -36 -43 -13 -16 -21 -22 -18 -12 4 11 1 17 -9 17 -8 0 -13 -4 -10 -8
2 -4 -4 -8 -14 -9 -11 -1 -22 2 -25 8 -3 5 1 6 9 3 9 -4 18 1 22 10 3 9 10 14
14 11 5 -3 11 4 15 15 3 11 11 20 16 20 6 0 6 -7 -1 -19 -18 -35 -10 -37 16
-3 24 30 34 38 34 28z m121 -7 c50 -17 52 -24 9 -27 -21 -1 -41 2 -44 6 -3 5
7 7 22 5 23 -3 24 -2 7 6 -41 20 -48 14 -43 -34 3 -25 2 -48 -3 -51 -5 -3 -9
20 -9 50 0 61 3 64 61 45z m-786 -27 c-3 -3 -11 0 -18 7 -9 10 -8 11 6 5 10
-3 15 -9 12 -12z m517 -9 c-6 -2 -9 -10 -6 -15 4 -7 2 -8 -5 -4 -13 9 -5 26
12 25 9 0 8 -2 -1 -6z m411 -52 c15 -14 27 -30 27 -36 0 -7 9 -20 19 -29 21
-19 44 -64 55 -106 6 -23 6 -24 -7 -7 -14 16 -15 16 -19 -6 -4 -20 -1 -23 19
-19 17 3 23 0 23 -14 0 -11 3 -37 6 -59 4 -30 3 -36 -5 -25 -7 9 -11 10 -11 3
0 -6 4 -15 10 -18 5 -3 9 -16 8 -28 0 -12 5 -35 11 -51 7 -17 8 -32 3 -35 -5
-3 -12 -43 -16 -89 -14 -157 -63 -288 -134 -354 -20 -18 -31 -26 -24 -17 10
13 9 19 -1 28 -12 9 -12 21 1 76 14 64 9 133 -7 106 -7 -10 -12 -8 -23 8 -19
27 -53 18 -69 -20 -19 -48 -24 -24 -4 26 9 26 14 49 11 52 -3 3 -10 -5 -15
-18 -9 -22 -10 -22 -10 -3 -1 11 3 24 9 30 6 6 4 10 -8 12 -9 1 -50 7 -89 13
l-73 12 0 98 c0 72 5 108 17 134 12 25 19 32 26 23 5 -9 7 -6 3 7 -3 11 3 44
13 73 16 47 19 51 26 30 19 -56 23 -63 24 -47 1 9 -6 33 -14 52 -8 20 -15 42
-15 49 1 7 7 -2 15 -19 8 -18 16 -33 19 -33 6 0 -4 41 -17 68 -8 17 -8 28 1
42 10 16 8 22 -11 36 -17 13 -18 15 -3 10 12 -4 24 0 33 11 8 10 11 12 7 4 -4
-9 -2 -12 7 -9 8 3 19 -2 26 -11 11 -15 12 -14 13 1 0 11 7 16 20 15 11 -1 20
-4 20 -7 0 -10 -50 -28 -56 -19 -3 5 -15 9 -27 9 -18 0 -15 -3 13 -18 28 -14
37 -15 43 -5 9 14 57 7 68 -10 4 -5 9 -5 13 2 4 6 2 11 -3 11 -6 0 -11 9 -11
19 0 11 -6 22 -12 25 -7 3 -1 4 14 1 15 -3 30 0 33 5 5 8 11 7 21 -1 25 -20
23 -5 -2 19 -18 17 -24 19 -24 7 0 -17 -16 -20 -25 -5 -3 6 -1 10 6 10 10 0
10 3 1 12 -7 7 -12 16 -12 21 0 10 19 -3 63 -42z m-2252 11 c10 -9 19 -23 19
-32 0 -19 37 -43 53 -34 9 5 9 3 0 -7 -10 -10 -16 -10 -25 -1 -9 9 -17 5 -36
-16 -47 -50 -124 -29 -127 35 -3 58 72 93 116 55z m2174 8 c3 -5 1 -10 -4 -10
-6 0 -11 5 -11 10 0 6 2 10 4 10 3 0 8 -4 11 -10z m-481 -9 c-8 -8 -34 -10
-38 -2 -3 4 6 7 19 7 14 0 22 -2 19 -5z m-486 -10 c11 -7 10 -9 -3 -14 -9 -4
-13 -3 -10 2 3 5 -5 12 -17 14 -20 4 -20 4 -3 5 11 1 26 -2 33 -7z m522 1 c0
-5 -7 -9 -15 -9 -8 0 -12 4 -9 9 3 4 9 8 15 8 5 0 9 -4 9 -8z m-465 -22 c-3
-5 -12 -10 -18 -10 -7 0 -6 4 3 10 19 12 23 12 15 0z m419 2 c2 -4 -5 -9 -17
-9 -17 -2 -19 0 -7 7 18 12 18 12 24 2z m-1254 -28 c0 -2 -19 -4 -42 -3 -35 1
-38 2 -18 8 23 7 60 4 60 -5z m67 0 c-3 -3 -12 -4 -19 -1 -8 3 -5 6 6 6 11 1
17 -2 13 -5z m1186 -1 c-7 -2 -21 -2 -30 0 -10 3 -4 5 12 5 17 0 24 -2 18 -5z
m-520 -10 c-40 -2 -106 -2 -145 0 -40 1 -8 3 72 3 80 0 112 -2 73 -3z m667
-19 c0 -2 -24 -4 -52 -4 -29 0 -48 4 -41 8 12 7 93 4 93 -4z m-516 -38 c495
-12 530 -14 542 -31 11 -14 14 -67 14 -221 l0 -201 -135 5 c-94 3 -139 1 -149
-7 -10 -8 -16 -53 -21 -166 l-7 -154 -25 30 c-28 33 -92 69 -120 69 -17 -1
-17 -1 -1 -11 36 -20 68 -93 68 -152 0 -93 17 -87 -231 -87 l-218 0 -3 93 -3
92 -240 0 -240 0 -3 -87 -3 -88 -59 0 c-33 0 -60 -4 -60 -10 0 -5 5 -10 12
-10 6 0 9 -3 5 -6 -3 -3 3 -26 14 -51 11 -25 21 -60 23 -77 5 -38 25 -91 32
-84 5 5 -10 80 -22 111 -5 13 0 17 20 17 29 0 28 1 26 -85 -1 -33 3 -73 9 -88
10 -26 13 -27 91 -27 72 0 80 -2 80 -19 0 -20 5 -19 -150 -39 -62 -9 -76 -8
-83 4 -8 13 -71 13 -85 0 -3 -3 -10 -2 -16 3 -13 10 -56 -4 -56 -19 0 -6 -68
-10 -196 -10 l-196 0 6 83 c4 45 11 140 15 210 10 155 26 185 113 211 15 4 17
18 15 96 -1 49 1 90 6 90 4 0 7 -4 7 -10 0 -5 13 -16 29 -25 l30 -15 -14 27
c-24 45 -5 87 78 176 l37 40 -42 -6 c-24 -3 -49 -14 -58 -25 -9 -10 -29 -21
-45 -25 l-30 -6 3 242 c2 215 5 244 20 255 18 15 86 14 1216 -12z m-1297 -38
c-3 -7 -5 -2 -5 12 0 14 2 19 5 13 2 -7 2 -19 0 -25z m2 -285 l-1 -266 -20 44
c-20 42 -21 43 -28 19 -5 -14 -8 -19 -9 -12 -1 6 -5 12 -11 12 -5 0 -7 -8 -3
-17 5 -15 3 -16 -8 -5 -7 6 -21 12 -30 12 -21 0 -25 46 -21 214 4 132 12 141
52 57 14 -29 28 -49 32 -46 3 3 9 1 14 -6 4 -8 3 -10 -4 -5 -17 10 -14 -4 8
-44 l19 -35 1 173 c0 94 2 172 5 172 3 0 5 -120 4 -267z m2408 -125 c-3 -7 -5
-2 -5 12 0 14 2 19 5 13 2 -7 2 -19 0 -25z m-582 -28 c4 -6 -11 -7 -42 -3 -63
8 -67 13 -10 13 25 0 49 -4 52 -10z m-1977 -65 c-3 -3 -31 -9 -63 -13 l-57 -7
-43 -121 -42 -121 33 -154 c19 -85 42 -190 52 -234 10 -44 17 -85 15 -90 -5
-15 -50 -17 -56 -2 -2 6 -26 120 -53 252 l-48 240 40 115 39 115 65 11 c72 13
126 17 118 9z m222 -42 c0 -19 -13 -9 -16 12 -1 8 2 13 7 9 5 -3 9 -12 9 -21z
m1784 6 c84 -7 144 -16 148 -23 4 -6 8 -62 8 -123 0 -94 -3 -113 -15 -113 -18
0 -20 -41 -3 -58 7 -7 20 -12 30 -12 10 0 18 -7 18 -15 0 -25 17 -17 40 20 12
19 29 35 37 35 14 0 14 2 1 18 -28 33 -28 48 3 59 18 7 29 8 29 2 0 -6 5 -7
10 -4 6 4 10 -8 10 -29 0 -23 5 -36 13 -36 7 0 26 -13 42 -30 27 -28 28 -31
16 -72 -14 -46 -55 -111 -90 -142 -20 -19 -23 -19 -57 -3 -19 9 -56 17 -81 17
-34 0 -53 6 -70 22 -19 18 -28 20 -41 12 -9 -6 -18 -18 -20 -27 -3 -13 3 -15
32 -10 24 4 36 2 36 -6 0 -6 -4 -11 -10 -11 -6 0 -9 -3 -9 -7 3 -18 -2 -36 -7
-30 -4 4 -16 -12 -27 -35 -11 -22 -38 -59 -59 -82 -31 -32 -41 -37 -48 -26 -5
8 -4 22 2 33 5 10 7 21 4 24 -3 3 1 12 9 20 8 8 15 17 15 21 0 4 -51 8 -112
10 -62 2 -118 8 -125 14 -11 9 -13 50 -11 182 2 150 12 304 16 253 1 -12 6
-15 15 -11 7 5 6 0 -3 -11 -14 -17 -14 -18 8 -6 19 10 22 20 22 70 0 32 3 73
6 90 8 37 6 37 218 20z m-1941 -88 c3 -16 9 -40 13 -55 5 -23 3 -26 -19 -26
-22 0 -27 6 -36 50 -6 28 -11 53 -11 55 0 3 11 5 24 5 18 0 25 -7 29 -29z
m-127 -28 c-3 -21 -6 -45 -6 -53 0 -15 -59 -45 -68 -35 -3 3 3 32 13 65 16 52
21 60 43 60 23 0 24 -3 18 -37z m1514 -369 c-13 -33 -13 -126 0 -160 9 -23 9
-25 -4 -15 -8 7 -31 11 -52 9 l-38 -3 -16 98 -17 97 68 0 69 0 -10 -26z m88
-7 c-10 -27 -12 -29 -19 -11 -12 31 -10 40 10 41 18 1 18 -2 9 -30z m142 1 c0
-27 -2 -28 -47 -28 -27 0 -61 -7 -77 -15 -27 -14 -28 -14 -15 2 33 45 69 68
104 68 32 0 35 -3 35 -27z m-213 -55 c-3 -10 -5 -4 -5 12 0 17 2 24 5 18 2 -7
2 -21 0 -30z m217 -11 c3 -5 -19 -7 -49 -4 -47 4 -57 1 -79 -21 -14 -15 -26
-23 -26 -18 0 12 24 38 40 44 24 9 108 8 114 -1z m-182 -94 c2 -20 0 -34 -4
-32 -4 3 -8 24 -7 47 1 47 6 41 11 -15z m174 28 c1 0 4 -18 7 -38 l6 -38 -70
0 c-54 0 -69 3 -69 15 0 25 22 64 39 68 13 4 83 -2 87 -7z m-568 -63 c-15 -2
-42 -2 -60 0 -18 2 -6 4 27 4 33 0 48 -2 33 -4z m-521 -49 c-3 -3 -12 -4 -19
-1 -8 3 -5 6 6 6 11 1 17 -2 13 -5z m111 -1 c-16 -2 -40 -2 -55 0 -16 2 -3 4
27 4 30 0 43 -2 28 -4z m-675 -20 c-13 -2 -33 -2 -45 0 -13 2 -3 4 22 4 25 0
35 -2 23 -4z"/>
<path d="M4836 1684 c-5 -14 -4 -15 9 -4 17 14 19 20 6 20 -5 0 -12 -7 -15
-16z"/>
<path d="M3083 1914 c-16 -17 -29 -24 -42 -19 -21 6 -38 -9 -22 -20 12 -7 -7
-55 -21 -55 -14 0 -9 -22 7 -34 9 -6 17 -25 19 -41 3 -26 7 -30 37 -32 18 -1
38 -9 45 -17 6 -9 17 -16 24 -16 9 0 7 7 -6 21 -19 21 -19 22 1 16 11 -3 36
-3 55 1 30 7 35 12 32 33 -2 13 -9 29 -17 34 -7 6 -15 22 -17 35 -2 14 -9 24
-16 23 -6 -2 -11 3 -9 10 1 8 -11 12 -38 12 -32 0 -42 -5 -54 -26 -29 -52 15
-106 77 -94 26 5 26 5 -3 -9 -28 -13 -32 -13 -60 9 -23 17 -31 32 -33 63 -4
52 23 82 73 82 41 0 85 -39 85 -75 0 -29 10 -37 26 -20 18 17 18 39 1 32 -14
-5 -15 -3 -21 48 -2 27 -7 30 -35 30 -20 0 -38 7 -45 18 -17 22 -17 22 -43 -9z
m61 -86 c14 -23 0 -48 -28 -48 -28 0 -44 33 -27 54 6 7 8 16 4 20 -4 4 4 3 17
-2 13 -5 28 -16 34 -24z"/>
<path d="M3100 1810 c0 -11 7 -20 15 -20 8 0 15 9 15 20 0 11 -7 20 -15 20 -8
0 -15 -9 -15 -20z"/>
<path d="M5226 1661 c-5 -7 -3 -18 3 -24 14 -14 20 -6 11 17 -5 15 -9 16 -14
7z"/>
<path d="M5104 1625 c3 -23 12 -26 13 -5 1 11 -2 20 -7 20 -4 0 -7 -7 -6 -15z"/>
<path d="M5015 1609 c-4 -11 -4 -23 -1 -26 3 -4 6 1 6 10 0 10 4 17 8 17 5 0
7 -13 4 -30 -2 -18 0 -30 7 -30 6 0 8 -6 5 -13 -2 -7 4 -13 16 -14 17 -2 18 1
10 17 -14 26 -13 60 3 60 8 0 7 3 -3 9 -8 6 -18 7 -22 5 -4 -3 -8 0 -8 5 0 19
-18 12 -25 -10z m38 -19 c-3 -12 -8 -19 -11 -16 -5 6 5 36 12 36 2 0 2 -9 -1
-20z"/>
<path d="M5255 1620 c-3 -5 -1 -10 4 -10 6 0 11 5 11 10 0 6 -2 10 -4 10 -3 0
-8 -4 -11 -10z"/>
<path d="M5090 1591 c0 -5 5 -13 10 -16 6 -3 10 -14 10 -24 0 -12 7 -17 22
-16 13 1 30 -8 41 -21 10 -13 21 -23 25 -21 8 2 12 -7 12 -25 0 -9 -3 -8 -10
2 -5 8 -12 11 -17 7 -4 -5 -1 -12 7 -17 9 -6 19 -5 24 0 14 14 29 12 20 -2 -4
-7 -3 -8 4 -4 6 4 9 13 6 20 -3 8 -1 17 5 21 6 3 11 11 11 18 0 6 -6 2 -14 -8
-13 -18 -15 -17 -54 16 -23 19 -42 37 -42 42 0 12 17 8 32 -7 15 -14 58 -31
58 -22 0 3 -16 13 -36 22 -27 13 -32 19 -22 26 10 8 9 9 -4 5 -9 -3 -19 -1
-22 6 -2 7 -5 4 -5 -5 -1 -22 -10 -23 -39 -2 -12 8 -22 11 -22 5z m51 -38 c13
-16 12 -17 -3 -4 -10 7 -18 15 -18 17 0 8 8 3 21 -13z"/>
<path d="M5231 1589 c-1 -9 12 -27 28 -42 l29 -25 7 35 c3 19 4 38 1 41 -3 3
-6 -4 -6 -16 0 -29 -23 -28 -43 1 -12 16 -16 18 -16 6z"/>
<path d="M5070 1580 c0 -21 17 -46 25 -38 4 4 0 17 -9 30 -10 14 -16 17 -16 8z"/>
<path d="M5267 1493 c-10 -9 -9 -23 1 -23 5 0 9 7 9 15 0 17 -1 18 -10 8z"/>
<path d="M4976 1464 c-8 -21 -8 -21 8 -21 8 0 11 8 8 19 -5 22 -8 23 -16 2z"/>
<path d="M5137 1461 c-4 -17 -2 -18 14 -8 22 14 25 27 5 27 -7 0 -16 -9 -19
-19z"/>
<path d="M5290 1436 c0 -2 8 -10 18 -17 15 -13 16 -12 3 4 -13 16 -21 21 -21
13z"/>
<path d="M5255 1420 c3 -5 11 -10 16 -10 6 0 7 5 4 10 -3 6 -11 10 -16 10 -6
0 -7 -4 -4 -10z"/>
<path d="M5185 1400 c-3 -5 1 -10 10 -10 9 0 13 5 10 10 -3 6 -8 10 -10 10 -2
0 -7 -4 -10 -10z"/>
<path d="M5290 1404 c0 -6 7 -19 16 -30 14 -18 14 -18 3 6 -14 31 -19 36 -19
24z"/>
<path d="M5222 1355 c0 -16 2 -22 5 -12 2 9 2 23 0 30 -3 6 -5 -1 -5 -18z"/>
<path d="M5116 1073 c-6 -14 -5 -15 5 -6 7 7 10 15 7 18 -3 3 -9 -2 -12 -12z"/>
<path d="M2915 1723 c-20 -6 -44 -31 -45 -48 0 -5 7 1 16 13 16 23 58 30 69
12 3 -5 10 -10 16 -10 5 0 0 9 -11 20 -11 11 -21 19 -22 19 -2 -1 -12 -4 -23
-6z"/>
<path d="M2902 1687 c-7 -8 -7 -18 -2 -27 8 -12 10 -10 10 8 0 13 6 22 15 22
8 0 15 -8 15 -18 0 -11 7 -18 20 -18 25 0 25 1 -2 26 -25 23 -41 25 -56 7z"/>
<path d="M3693 1370 c-49 -29 -64 -69 -81 -223 l-16 -139 28 -24 c49 -43 76
-33 153 51 l68 75 110 0 111 0 59 -70 c62 -71 87 -87 129 -76 60 15 64 37 42
223 -15 121 -33 160 -86 188 -45 23 -111 19 -154 -10 -30 -20 -49 -25 -101
-25 -52 0 -71 5 -101 25 -46 31 -115 34 -161 5z m466 -86 c-9 -11 -15 -12 -25
-3 -11 9 -12 15 -3 25 9 11 15 12 25 3 11 -9 12 -15 3 -25z m-42 -30 c8 -20
-17 -36 -34 -22 -10 8 -10 14 -2 24 15 18 28 18 36 -2z m46 -49 c7 -17 -8 -29
-28 -21 -17 6 -9 36 10 36 7 0 15 -7 18 -15z"/>
<path d="M3279 1161 c-60 -6 -91 -26 -114 -71 -7 -14 -11 -29 -9 -35 3 -6 40
-8 100 -5 85 4 98 8 115 29 20 24 24 47 13 75 -6 17 -12 17 -105 7z"/>
<path d="M3320 545 c-7 -89 -11 -122 -14 -136 -3 -12 6 -18 32 -23 20 -3 37
-4 39 -2 2 2 -1 15 -7 30 -5 15 -10 38 -10 52 0 13 -4 24 -9 24 -5 0 -13 17
-19 38 -6 22 -11 29 -12 17z"/>
<path d="M2971 1094 c0 -11 3 -14 6 -6 3 7 2 16 -1 19 -3 4 -6 -2 -5 -13z"/>
<path d="M4636 859 c3 -5 23 -9 45 -9 24 0 39 -5 39 -12 0 -10 2 -10 8 -1 4 6
21 13 37 16 17 2 1 5 -35 6 -36 2 -73 4 -83 6 -9 2 -15 -1 -11 -6z"/>
<path d="M4818 853 c6 -2 18 -2 25 0 6 3 1 5 -13 5 -14 0 -19 -2 -12 -5z"/>
<path d="M4874 846 c-3 -8 -4 -25 -1 -38 3 -17 5 -14 6 11 1 30 4 33 25 29 14
-3 31 -1 38 3 8 6 -1 9 -25 9 -23 0 -40 -5 -43 -14z"/>
<path d="M4970 850 c0 -5 5 -10 10 -10 6 0 10 5 10 10 0 6 -4 10 -10 10 -5 0
-10 -4 -10 -10z"/>
<path d="M4935 730 c-3 -5 1 -10 10 -10 9 0 13 5 10 10 -3 6 -8 10 -10 10 -2
0 -7 -4 -10 -10z"/>
<path d="M4940 690 c0 -5 5 -10 10 -10 6 0 10 5 10 10 0 6 -4 10 -10 10 -5 0
-10 -4 -10 -10z"/>
<path d="M4909 666 c8 -9 24 -22 35 -28 19 -10 20 -10 7 6 -8 9 -24 22 -35 28
-19 10 -20 10 -7 -6z"/>
<path d="M4830 652 c0 -4 13 -8 30 -8 16 -1 27 2 24 7 -6 11 -54 12 -54 1z"/>
<path d="M4999 624 c-12 -14 -11 -16 5 -13 11 2 21 10 24 17 5 17 -13 15 -29
-4z"/>
<path d="M5045 580 c-3 -5 -15 -10 -27 -10 -17 0 -18 -2 -8 -15 21 -25 50 -19
50 10 0 27 -5 31 -15 15z"/>
<path d="M4810 481 c-14 -27 -13 -41 4 -41 20 0 37 25 30 44 -8 21 -21 20 -34
-3z"/>
</g>
</svg>
